<?xml version="1.0" encoding="UTF-8"?>
<svg xmlns="http://www.w3.org/2000/svg" xmlns:xlink="http://www.w3.org/1999/xlink" viewBox="0 0 50 50" width="50px" height="50px">
<g id="surface343556186">
<path style=" stroke:none;fill-rule:nonzero;fill:rgb(0%,0%,100%);fill-opacity:1;" d="M 25 50 C 11.191406 50 0 38.808594 0 25 C 0 11.191406 11.191406 0 25 0 C 38.808594 0 50 11.191406 50 25 C 50 38.808594 38.808594 50 25 50 Z M 25 50 "/>
<path style=" stroke:none;fill-rule:nonzero;fill:rgb(100%,100%,100%);fill-opacity:1;" d="M 25 6.601562 C 14.847656 6.601562 6.601562 14.847656 6.601562 25 C 6.601562 35.152344 14.847656 43.398438 25 43.398438 C 35.152344 43.398438 43.398438 35.152344 43.398438 25 C 43.398438 14.847656 35.152344 6.601562 25 6.601562 Z M 25 8.199219 C 34.289062 8.199219 41.800781 15.710938 41.800781 25 C 41.800781 34.289062 34.289062 41.800781 25 41.800781 C 15.710938 41.800781 8.199219 34.289062 8.199219 25 C 8.199219 15.710938 15.710938 8.199219 25 8.199219 Z M 29.554688 16.246094 C 26.675781 16.246094 24.320312 18.601562 24.320312 21.476562 C 24.320312 21.496094 24.328125 21.519531 24.328125 21.539062 C 21.277344 21.132812 18.578125 19.625 16.726562 17.351562 C 16.554688 17.148438 16.304688 17.039062 16.039062 17.058594 C 15.777344 17.082031 15.542969 17.226562 15.414062 17.453125 C 14.960938 18.226562 14.703125 19.132812 14.703125 20.085938 C 14.703125 20.933594 14.941406 21.726562 15.304688 22.4375 C 14.933594 22.515625 14.667969 22.839844 14.667969 23.21875 L 14.667969 23.273438 C 14.667969 24.820312 15.394531 26.164062 16.464844 27.121094 C 16.246094 27.335938 16.164062 27.648438 16.257812 27.941406 C 16.703125 29.332031 17.746094 30.417969 19.050781 31.035156 C 18.007812 31.523438 16.886719 31.871094 15.65625 31.871094 C 15.328125 31.871094 15.007812 31.851562 14.695312 31.8125 C 14.324219 31.769531 13.972656 31.988281 13.847656 32.335938 C 13.71875 32.691406 13.851562 33.082031 14.167969 33.285156 C 16.253906 34.617188 18.734375 35.398438 21.390625 35.398438 C 25.6875 35.398438 29.085938 33.59375 31.351562 31.023438 C 33.625 28.445312 34.804688 25.121094 34.804688 21.992188 C 34.804688 21.898438 34.800781 21.808594 34.796875 21.714844 C 35.574219 21.089844 36.308594 20.398438 36.863281 19.570312 C 37.054688 19.289062 37.042969 18.917969 36.839844 18.648438 C 36.636719 18.375 36.289062 18.257812 35.960938 18.359375 C 36.09375 18.105469 36.273438 17.890625 36.363281 17.617188 C 36.464844 17.300781 36.359375 16.953125 36.101562 16.746094 C 35.839844 16.539062 35.480469 16.511719 35.195312 16.683594 C 34.496094 17.097656 33.710938 17.371094 32.898438 17.5625 C 31.980469 16.78125 30.84375 16.246094 29.554688 16.246094 Z M 29.554688 17.847656 C 30.601562 17.847656 31.542969 18.285156 32.203125 18.992188 C 32.394531 19.195312 32.671875 19.285156 32.941406 19.230469 C 33.0625 19.207031 33.164062 19.132812 33.28125 19.101562 C 33.265625 19.109375 33.257812 19.128906 33.242188 19.136719 C 32.929688 19.320312 32.785156 19.695312 32.882812 20.039062 C 32.984375 20.386719 33.304688 20.628906 33.664062 20.621094 C 33.609375 20.664062 33.578125 20.730469 33.523438 20.773438 C 33.304688 20.929688 33.179688 21.183594 33.191406 21.453125 C 33.195312 21.632812 33.203125 21.8125 33.203125 21.992188 C 33.203125 24.714844 32.152344 27.695312 30.152344 29.960938 C 28.15625 32.226562 25.246094 33.800781 21.390625 33.800781 C 20.070312 33.800781 18.824219 33.535156 17.640625 33.132812 C 19.117188 32.820312 20.507812 32.300781 21.652344 31.402344 C 21.917969 31.195312 22.023438 30.839844 21.914062 30.523438 C 21.808594 30.199219 21.511719 29.980469 21.175781 29.976562 C 20.042969 29.953125 19.167969 29.3125 18.519531 28.488281 C 18.757812 28.457031 19.007812 28.457031 19.234375 28.390625 C 19.589844 28.292969 19.835938 27.960938 19.820312 27.59375 C 19.808594 27.222656 19.542969 26.910156 19.179688 26.835938 C 17.859375 26.570312 16.828125 25.578125 16.449219 24.296875 C 16.789062 24.378906 17.085938 24.5625 17.449219 24.574219 C 17.804688 24.585938 18.128906 24.359375 18.238281 24.019531 C 18.347656 23.679688 18.214844 23.308594 17.921875 23.109375 C 16.945312 22.457031 16.304688 21.351562 16.304688 20.085938 C 16.304688 19.824219 16.445312 19.617188 16.496094 19.371094 C 18.769531 21.621094 21.792969 23.117188 25.199219 23.289062 C 25.449219 23.300781 25.695312 23.195312 25.851562 23 C 26.015625 22.804688 26.074219 22.546875 26.015625 22.304688 C 25.957031 22.039062 25.921875 21.765625 25.921875 21.476562 C 25.921875 19.460938 27.539062 17.847656 29.554688 17.847656 Z M 29.554688 17.847656 "/>
</g>
</svg>
